<svg xmlns="http://www.w3.org/2000/svg" width="900" height="720" viewBox="0 0 900 720"><defs><linearGradient id="g" x1="0" y1="0" x2="0" y2="1"><stop offset="0" stop-color="#7fa35f"/><stop offset="1" stop-color="#30491f"/></linearGradient><filter id="s"><feDropShadow dx="8" dy="10" stdDeviation="6" flood-opacity=".35"/></filter></defs><rect width="900" height="720" fill="url(#g)"/><g opacity=".75"><circle cx="90" cy="90" r="70" fill="#2f5c28"/><circle cx="790" cy="110" r="85" fill="#315f2a"/><circle cx="90" cy="630" r="90" fill="#244d22"/><circle cx="795" cy="640" r="95" fill="#2d5827"/><circle cx="450" cy="70" r="55" fill="#386b2e"/></g><g transform="translate(450 360) rotate(45)" filter="url(#s)"><rect x="-315" y="-245" width="630" height="490" rx="18" fill="#988b6c" stroke="#675f4b" stroke-width="6"/><g stroke="#5f5647" stroke-width="1.7" opacity=".55"><path d="M-315 -210H315M-315 -175H315M-315 -140H315M-315 -105H315M-315 -70H315M-315 -35H315M-315 0H315M-315 35H315M-315 70H315M-315 105H315M-315 140H315M-315 175H315M-315 210H315"/><path d="M-280 -245V245M-245 -245V245M-210 -245V245M-175 -245V245M-140 -245V245M-105 -245V245M-70 -245V245M-35 -245V245M0 -245V245M35 -245V245M70 -245V245M105 -245V245M140 -245V245M175 -245V245M210 -245V245M245 -245V245M280 -245V245"/></g><rect x="-295" y="-230" width="590" height="24" fill="#796f5d"/><rect x="-295" y="206" width="590" height="24" fill="#796f5d"/><rect x="-295" y="-230" width="24" height="460" fill="#796f5d"/><rect x="271" y="-230" width="24" height="460" fill="#796f5d"/></g><g transform="translate(450 360) rotate(45)"><rect x="-260" y="-215" width="130" height="70" rx="20" fill="#335f2b"/><rect x="130" y="-215" width="130" height="70" rx="20" fill="#335f2b"/><rect x="-240" y="150" width="140" height="55" rx="18" fill="#335f2b"/><rect x="115" y="145" width="145" height="60" rx="18" fill="#335f2b"/><circle cx="-210" cy="-165" r="30" fill="#80d7ff" stroke="#e0f7ff" stroke-width="8"/><circle cx="210" cy="-165" r="30" fill="#80d7ff" stroke="#e0f7ff" stroke-width="8"/><rect x="-55" y="-238" width="110" height="36" rx="6" fill="#654421"/><rect x="155" y="120" width="88" height="70" rx="8" fill="#e8b82e" stroke="#fff0a0" stroke-width="7"/></g><g opacity=".55" fill="#f9f3c2"><circle cx="110" cy="210" r="4"/><circle cx="160" cy="250" r="3"/><circle cx="740" cy="210" r="4"/><circle cx="785" cy="270" r="3"/><circle cx="150" cy="610" r="4"/><circle cx="755" cy="600" r="4"/></g></svg>