<svg xmlns="http://www.w3.org/2000/svg" width="1200" height="900" viewBox="0 0 1200 900"><defs><linearGradient id="sky" x1="0" y1="0" x2="0" y2="1"><stop offset="0" stop-color="#80b7e5"/><stop offset=".4" stop-color="#b7dcf0"/><stop offset="1" stop-color="#6b8f46"/></linearGradient><linearGradient id="stone" x1="0" y1="0" x2="1" y2="1"><stop offset="0" stop-color="#c2a879"/><stop offset="1" stop-color="#7f6e50"/></linearGradient><filter id="shadow"><feDropShadow dx="0" dy="8" stdDeviation="6" flood-opacity=".35"/></filter></defs><rect width="1200" height="900" fill="url(#sky)"/><circle cx="260" cy="170" r="105" fill="#426d2f"/><circle cx="890" cy="145" r="130" fill="#557d36"/><circle cx="1020" cy="250" r="100" fill="#375f29"/><path d="M0 370 Q220 260 400 360 T820 350 T1200 330 V900 H0Z" fill="#3b642c"/><g opacity=".85"><rect x="70" y="230" width="1060" height="120" fill="#88795d"/><rect x="210" y="160" width="95" height="250" rx="8" fill="#8d8069"/><rect x="895" y="160" width="95" height="250" rx="8" fill="#8d8069"/><circle cx="258" cy="145" r="40" fill="#9e9277"/><circle cx="942" cy="145" r="40" fill="#9e9277"/></g><g filter="url(#shadow)"><path d="M515 265 Q600 210 685 265 V405 H515Z" fill="#835421" stroke="#2d1c10" stroke-width="8"/><line x1="600" y1="228" x2="600" y2="405" stroke="#2d1c10" stroke-width="8"/><path d="M535 310 H585 M615 310 H665 M535 365 H585 M615 365 H665" stroke="#1b1511" stroke-width="9"/></g><g transform="translate(600 610) rotate(0)"><path d="M-460 -30 Q-260 -210 0 -155 T460 -30 L360 185 H-360Z" fill="url(#stone)" stroke="#66543b" stroke-width="6"/><g stroke="#6d5b44" stroke-width="2" opacity=".55"><path d="M-380 0 H380M-420 45 H420M-390 90 H390M-330 135 H330"/><path d="M-300 -75 L-360 165M-180 -120 L-210 180M-60 -150 L-50 188M80 -145 L55 188M220 -105 L185 180M335 -40 L285 165"/></g></g><g fill="#2f5f2e"><rect x="45" y="350" width="250" height="120" rx="45"/><rect x="905" y="350" width="245" height="120" rx="45"/><rect x="35" y="660" width="210" height="95" rx="40"/><rect x="980" y="655" width="190" height="100" rx="40"/></g><g fill="#fff7b2" opacity=".9"><circle cx="92" cy="405" r="8"/><circle cx="146" cy="424" r="6"/><circle cx="1050" cy="400" r="8"/><circle cx="1110" cy="435" r="7"/><circle cx="180" cy="705" r="7"/><circle cx="1030" cy="700" r="7"/></g><g filter="url(#shadow)"><ellipse cx="160" cy="560" rx="80" ry="32" fill="#47515d" stroke="#f5cf64" stroke-width="8"/><ellipse cx="920" cy="560" rx="80" ry="32" fill="#47515d" stroke="#f5cf64" stroke-width="8"/><rect x="500" y="455" width="170" height="130" rx="12" fill="#9b6429" stroke="#2a1b0d" stroke-width="8"/><path d="M515 470 L650 570 M650 470 L515 570" stroke="#5b3519" stroke-width="8"/><rect x="730" y="520" width="120" height="110" rx="10" fill="#90806a" stroke="#463b2c" stroke-width="7"/><path d="M767 570 q25 -35 50 0 q-25 35 -50 0" fill="none" stroke="#5d4f3b" stroke-width="6"/><rect x="1045" y="525" width="75" height="45" rx="8" fill="#5c5b58" stroke="#2a2a2a" stroke-width="6"/><line x1="1090" y1="520" x2="1130" y2="425" stroke="#2d2d2d" stroke-width="14"/><circle cx="1136" cy="410" r="25" fill="#b77a31" stroke="#2d2d2d" stroke-width="6"/></g><g filter="url(#shadow)"><ellipse cx="358" cy="670" rx="42" ry="14" fill="rgba(0,0,0,.25)"/><rect x="325" y="445" width="64" height="160" rx="28" fill="#1e5d94"/><circle cx="357" cy="410" r="35" fill="#c28d65"/><path d="M330 395 q30 -40 62 0" fill="#6b3f20"/><rect x="318" y="595" width="25" height="75" fill="#193d63"/><rect x="370" y="595" width="25" height="75" fill="#193d63"/><text x="315" y="700" fill="white" font-size="26" font-family="system-ui" font-weight="700">Vater</text><ellipse cx="468" cy="675" rx="35" ry="12" fill="rgba(0,0,0,.22)"/><rect x="438" y="490" width="60" height="110" rx="25" fill="#cc6a1f"/><circle cx="468" cy="458" r="28" fill="#d7a178"/><path d="M440 445 q28 -34 58 0" fill="#71401f"/><rect x="440" y="594" width="22" height="78" fill="#224d75"/><rect x="482" y="594" width="22" height="78" fill="#224d75"/><text x="434" y="705" fill="white" font-size="24" font-family="system-ui" font-weight="700">Sohn</text></g><g font-family="system-ui" font-weight="800" text-anchor="middle" fill="#ffe8a3" stroke="#4a2c12" stroke-width="3" paint-order="stroke"><text x="600" y="210" font-size="34">Tor öffnen</text><text x="585" y="440" font-size="30">Kiste schieben</text><text x="1070" y="405" font-size="30">Hebel</text><text x="160" y="650" font-size="28">Platte</text><text x="920" y="650" font-size="28">Platte</text></g><rect x="130" y="775" width="940" height="85" rx="18" fill="#1d120a" stroke="#b08643" stroke-width="6"/><text x="600" y="828" fill="#ffe9b0" font-size="34" text-anchor="middle" font-family="system-ui" font-weight="800">Wir müssen den Hof öffnen. Lass uns gemeinsam das Rätsel lösen!</text></svg>